<mxfile host="65bd71144e">
    <diagram id="_BUwL_EvXlOJXelI0lPG" name="Page-1">
        <mxGraphModel dx="781" dy="809" grid="1" gridSize="10" guides="1" tooltips="1" connect="1" arrows="1" fold="1" page="1" pageScale="1" pageWidth="827" pageHeight="1169" math="0" shadow="0">
            <root>
                <mxCell id="0"/>
                <mxCell id="1" parent="0"/>
                <mxCell id="6" value="" style="swimlane;startSize=0;fontColor=#000000;fillColor=#FFFFFF;" vertex="1" parent="1">
                    <mxGeometry x="42" y="130" width="728" height="420" as="geometry"/>
                </mxCell>
                <object placeholders="1" c4Name="Backend" c4Type="ContainerScopeBoundary" c4Application=" " label="&lt;font style=&quot;font-size: 16px&quot;&gt;&lt;b&gt;&lt;div style=&quot;text-align: left&quot;&gt;%c4Name%&lt;/div&gt;&lt;/b&gt;&lt;/font&gt;&lt;div style=&quot;text-align: left&quot;&gt;[%c4Application%]&lt;/div&gt;" id="8">
                    <mxCell style="rounded=1;fontSize=11;whiteSpace=wrap;html=1;dashed=1;arcSize=20;fillColor=none;strokeColor=#666666;fontColor=#333333;labelBackgroundColor=#bbb9b9;align=left;verticalAlign=bottom;labelBorderColor=none;spacingTop=0;spacing=10;dashPattern=8 4;metaEdit=1;rotatable=0;perimeter=rectanglePerimeter;noLabel=0;labelPadding=0;allowArrows=0;connectable=0;expand=0;recursiveResize=0;editable=1;pointerEvents=0;absoluteArcSize=1;points=[[0.25,0,0],[0.5,0,0],[0.75,0,0],[1,0.25,0],[1,0.5,0],[1,0.75,0],[0.75,1,0],[0.5,1,0],[0.25,1,0],[0,0.75,0],[0,0.5,0],[0,0.25,0]];" vertex="1" parent="6">
                        <mxGeometry x="78" y="80" width="172" height="210" as="geometry"/>
                    </mxCell>
                </object>
                <mxCell id="20" style="edgeStyle=none;html=1;fontColor=#030303;" edge="1" parent="6" source="9" target="12">
                    <mxGeometry relative="1" as="geometry"/>
                </mxCell>
                <mxCell id="9" value="Backend" style="sketch=0;aspect=fixed;html=1;points=[];align=center;image;fontSize=12;image=img/lib/mscae/Container_Registries.svg;labelBackgroundColor=#bbb9b9;labelBorderColor=default;fontColor=#030303;fillColor=#FFFFFF;" vertex="1" parent="6">
                    <mxGeometry x="144" y="130" width="50" height="43" as="geometry"/>
                </mxCell>
                <mxCell id="10" value="Dockerfile" style="sketch=0;aspect=fixed;html=1;points=[];align=center;image;fontSize=12;image=img/lib/mscae/Docker.svg;labelBackgroundColor=#bbb9b9;labelBorderColor=default;fontColor=#030303;fillColor=#FFFFFF;" vertex="1" parent="6">
                    <mxGeometry x="228" y="260" width="50" height="41" as="geometry"/>
                </mxCell>
                <object placeholders="1" c4Name="Oracle Data Base" c4Type="ContainerScopeBoundary" c4Application=" " label="&lt;font style=&quot;font-size: 16px&quot;&gt;&lt;b&gt;&lt;div style=&quot;text-align: left&quot;&gt;%c4Name%&lt;/div&gt;&lt;/b&gt;&lt;/font&gt;&lt;div style=&quot;text-align: left&quot;&gt;[%c4Application%]&lt;/div&gt;" id="11">
                    <mxCell style="rounded=1;fontSize=11;whiteSpace=wrap;html=1;dashed=1;arcSize=20;fillColor=none;strokeColor=#666666;fontColor=#333333;labelBackgroundColor=#bbb9b9;align=left;verticalAlign=bottom;labelBorderColor=none;spacingTop=0;spacing=10;dashPattern=8 4;metaEdit=1;rotatable=0;perimeter=rectanglePerimeter;noLabel=0;labelPadding=0;allowArrows=0;connectable=0;expand=0;recursiveResize=0;editable=1;pointerEvents=0;absoluteArcSize=1;points=[[0.25,0,0],[0.5,0,0],[0.75,0,0],[1,0.25,0],[1,0.5,0],[1,0.75,0],[0.75,1,0],[0.5,1,0],[0.25,1,0],[0,0.75,0],[0,0.5,0],[0,0.25,0]];" vertex="1" parent="6">
                        <mxGeometry x="288" y="80" width="182" height="210" as="geometry"/>
                    </mxCell>
                </object>
                <mxCell id="21" style="edgeStyle=none;html=1;fontColor=#030303;" edge="1" parent="6" source="12" target="9">
                    <mxGeometry relative="1" as="geometry"/>
                </mxCell>
                <mxCell id="22" style="edgeStyle=none;html=1;fontColor=#030303;" edge="1" parent="6" source="12" target="15">
                    <mxGeometry relative="1" as="geometry"/>
                </mxCell>
                <mxCell id="12" value="DB" style="sketch=0;aspect=fixed;html=1;points=[];align=center;image;fontSize=12;image=img/lib/mscae/Container_Registries.svg;labelBackgroundColor=#bbb9b9;labelBorderColor=default;fontColor=#030303;fillColor=#FFFFFF;" vertex="1" parent="6">
                    <mxGeometry x="354" y="130" width="50" height="43" as="geometry"/>
                </mxCell>
                <mxCell id="13" value="Dockerfile" style="sketch=0;aspect=fixed;html=1;points=[];align=center;image;fontSize=12;image=img/lib/mscae/Docker.svg;labelBackgroundColor=#bbb9b9;labelBorderColor=default;fontColor=#030303;fillColor=#FFFFFF;" vertex="1" parent="6">
                    <mxGeometry x="438" y="260" width="50" height="41" as="geometry"/>
                </mxCell>
                <object placeholders="1" c4Name="Integration Services" c4Type="ContainerScopeBoundary" c4Application=" " label="&lt;font style=&quot;font-size: 16px&quot;&gt;&lt;b&gt;&lt;div style=&quot;text-align: left&quot;&gt;%c4Name%&lt;/div&gt;&lt;/b&gt;&lt;/font&gt;&lt;div style=&quot;text-align: left&quot;&gt;[%c4Application%]&lt;/div&gt;" id="14">
                    <mxCell style="rounded=1;fontSize=11;whiteSpace=wrap;html=1;dashed=1;arcSize=20;fillColor=none;strokeColor=#666666;fontColor=#333333;labelBackgroundColor=#bbb9b9;align=left;verticalAlign=bottom;labelBorderColor=none;spacingTop=0;spacing=10;dashPattern=8 4;metaEdit=1;rotatable=0;perimeter=rectanglePerimeter;noLabel=0;labelPadding=0;allowArrows=0;connectable=0;expand=0;recursiveResize=0;editable=1;pointerEvents=0;absoluteArcSize=1;points=[[0.25,0,0],[0.5,0,0],[0.75,0,0],[1,0.25,0],[1,0.5,0],[1,0.75,0],[0.75,1,0],[0.5,1,0],[0.25,1,0],[0,0.75,0],[0,0.5,0],[0,0.25,0]];" vertex="1" parent="6">
                        <mxGeometry x="498" y="80" width="182" height="210" as="geometry"/>
                    </mxCell>
                </object>
                <mxCell id="23" style="edgeStyle=none;html=1;fontColor=#030303;" edge="1" parent="6" source="15" target="12">
                    <mxGeometry relative="1" as="geometry"/>
                </mxCell>
                <mxCell id="15" value="API" style="sketch=0;aspect=fixed;html=1;points=[];align=center;image;fontSize=12;image=img/lib/mscae/Container_Registries.svg;labelBackgroundColor=#bbb9b9;labelBorderColor=default;fontColor=#030303;fillColor=#FFFFFF;" vertex="1" parent="6">
                    <mxGeometry x="564" y="130" width="50" height="43" as="geometry"/>
                </mxCell>
                <mxCell id="16" value="Dockerfile" style="sketch=0;aspect=fixed;html=1;points=[];align=center;image;fontSize=12;image=img/lib/mscae/Docker.svg;labelBackgroundColor=#bbb9b9;labelBorderColor=default;fontColor=#030303;fillColor=#FFFFFF;" vertex="1" parent="6">
                    <mxGeometry x="648" y="260" width="50" height="41" as="geometry"/>
                </mxCell>
                <mxCell id="18" value="MicroServices" style="aspect=fixed;html=1;points=[];align=center;image;fontSize=12;image=img/lib/azure2/compute/Container_Services_Deprecated.svg;labelBackgroundColor=#bbb9b9;labelBorderColor=default;fontColor=#030303;fillColor=#FFFFFF;" vertex="1" parent="6">
                    <mxGeometry x="-2" width="68" height="60" as="geometry"/>
                </mxCell>
            </root>
        </mxGraphModel>
    </diagram>
</mxfile>